<svg width="286" height="78" viewBox="0 0 286 78" fill="none" xmlns="http://www.w3.org/2000/svg">
<path d="M0.468262 10.6426C0.468262 5.11972 4.94541 0.642578 10.4683 0.642578L45.9999 0.642578C57.0456 0.642578 65.9999 9.59688 65.9999 20.6426V77.1762H10.4683C4.94541 77.1762 0.468262 72.6991 0.468262 67.1762L0.468262 10.6426Z" fill="#F5F5F5"/>
<path d="M97.8733 17.1797C97.8733 20.0547 97.1194 22.2305 95.6116 23.707C94.1038 25.1758 91.8889 25.9102 88.967 25.9102H84.8655V8.77734H89.4944C92.2288 8.77734 94.3069 9.49219 95.7288 10.9219C97.1584 12.3516 97.8733 14.4375 97.8733 17.1797ZM96.5725 17.2266C96.5725 14.7734 95.9475 12.9297 94.6975 11.6953C93.4553 10.4531 91.6272 9.83203 89.2131 9.83203H86.0608V24.8555H88.8967C94.0139 24.8555 96.5725 22.3125 96.5725 17.2266ZM111.174 25.9102H101.811V8.77734H111.174V9.87891H103.006V16.3594H110.717V17.4609H103.006V24.8086H111.174V25.9102ZM82.053 54.2344C81.3342 54.2344 80.7444 54.1289 80.2834 53.918V52.8867C80.8928 53.043 81.4749 53.1211 82.0295 53.1211C83.9202 53.1211 84.8655 52.0898 84.8655 50.0273V32.7773H86.0608V49.9102C86.0608 52.793 84.7249 54.2344 82.053 54.2344ZM100.158 49.9102H90.7952V32.7773H100.158V33.8789H91.9905V40.3594H99.7014V41.4609H91.9905V48.8086H100.158V49.9102ZM116.635 32.7773V43.8633C116.635 45.832 116.065 47.3711 114.924 48.4805C113.783 49.5898 112.194 50.1445 110.155 50.1445C108.17 50.1445 106.619 49.5898 105.502 48.4805C104.393 47.3633 103.838 45.8086 103.838 43.8164V32.7773H105.045V43.8633C105.045 45.5117 105.502 46.7969 106.416 47.7188C107.33 48.6328 108.623 49.0898 110.295 49.0898C111.928 49.0898 113.194 48.6406 114.092 47.7422C114.99 46.8359 115.44 45.582 115.44 43.9805V32.7773H116.635ZM128.049 41.2734H134.365V49.0898C132.709 49.793 130.846 50.1445 128.776 50.1445C126.073 50.1445 123.998 49.3828 122.553 47.8594C121.115 46.3281 120.397 44.1641 120.397 41.3672C120.397 39.625 120.752 38.082 121.463 36.7383C122.182 35.3867 123.205 34.3438 124.533 33.6094C125.869 32.875 127.401 32.5078 129.127 32.5078C130.994 32.5078 132.67 32.8516 134.155 33.5391L133.674 34.6172C132.19 33.9297 130.651 33.5859 129.057 33.5859C126.799 33.5859 125.006 34.2852 123.678 35.6836C122.358 37.0742 121.698 38.9531 121.698 41.3203C121.698 43.8984 122.326 45.8398 123.584 47.1445C124.842 48.4414 126.69 49.0898 129.127 49.0898C130.705 49.0898 132.045 48.8672 133.147 48.4219V42.3984H128.049V41.2734ZM151.686 41.1797C151.686 44.0547 150.932 46.2305 149.424 47.707C147.916 49.1758 145.701 49.9102 142.78 49.9102H138.678V32.7773H143.307C146.041 32.7773 148.119 33.4922 149.541 34.9219C150.971 36.3516 151.686 38.4375 151.686 41.1797ZM150.385 41.2266C150.385 38.7734 149.76 36.9297 148.51 35.6953C147.268 34.4531 145.44 33.832 143.026 33.832H139.873V48.8555H142.709C147.826 48.8555 150.385 46.3125 150.385 41.2266ZM166.065 49.9102H154.158V49.0195L164.19 33.9023H154.615V32.7773H165.795V33.668L155.74 48.7852H166.065V49.9102ZM183.854 41.3203C183.854 44.0391 183.174 46.1914 181.815 47.7773C180.455 49.3555 178.58 50.1445 176.19 50.1445C173.807 50.1445 171.936 49.3555 170.576 47.7773C169.217 46.1914 168.537 44.0312 168.537 41.2969C168.537 38.5703 169.221 36.4258 170.588 34.8633C171.963 33.293 173.838 32.5078 176.213 32.5078C178.604 32.5078 180.475 33.2969 181.826 34.875C183.178 36.4453 183.854 38.5938 183.854 41.3203ZM169.838 41.3203C169.838 43.7734 170.385 45.6719 171.479 47.0156C172.573 48.3516 174.143 49.0195 176.19 49.0195C178.252 49.0195 179.826 48.3555 180.912 47.0273C182.006 45.6992 182.553 43.7969 182.553 41.3203C182.553 38.8516 182.006 36.9609 180.912 35.6484C179.826 34.3281 178.26 33.668 176.213 33.668C174.174 33.668 172.6 34.332 171.49 35.6602C170.389 36.9883 169.838 38.875 169.838 41.3203ZM188.998 42.4453V49.9102H187.803V32.7773H191.881C194.006 32.7773 195.576 33.1719 196.592 33.9609C197.608 34.7422 198.115 35.9219 198.115 37.5C198.115 38.6484 197.811 39.6172 197.201 40.4062C196.6 41.1953 195.682 41.7617 194.448 42.1055L199.1 49.9102H197.67L193.252 42.4453H188.998ZM188.998 41.4141H192.268C193.713 41.4141 194.834 41.0938 195.631 40.4531C196.428 39.8047 196.826 38.8516 196.826 37.5938C196.826 36.2891 196.436 35.3398 195.655 34.7461C194.873 34.1523 193.6 33.8555 191.834 33.8555H188.998V41.4141ZM208.815 41.2734H215.131V49.0898C213.475 49.793 211.612 50.1445 209.541 50.1445C206.838 50.1445 204.764 49.3828 203.319 47.8594C201.881 46.3281 201.162 44.1641 201.162 41.3672C201.162 39.625 201.518 38.082 202.229 36.7383C202.948 35.3867 203.971 34.3438 205.299 33.6094C206.635 32.875 208.166 32.5078 209.893 32.5078C211.76 32.5078 213.436 32.8516 214.92 33.5391L214.44 34.6172C212.955 33.9297 211.416 33.5859 209.823 33.5859C207.565 33.5859 205.772 34.2852 204.444 35.6836C203.123 37.0742 202.463 38.9531 202.463 41.3203C202.463 43.8984 203.092 45.8398 204.35 47.1445C205.608 48.4414 207.455 49.0898 209.893 49.0898C211.471 49.0898 212.811 48.8672 213.912 48.4219V42.3984H208.815V41.2734ZM93.1155 67.8633H86.1545L83.7639 73.9102H82.4397L89.3303 56.707H90.092L96.842 73.9102H95.4944L93.1155 67.8633ZM86.5881 66.7852H92.717L90.385 60.6094C90.1897 60.125 89.9553 59.4531 89.6819 58.5938C89.4709 59.3438 89.2405 60.0234 88.9905 60.6328L86.5881 66.7852ZM106.592 57.6094C104.444 57.6094 102.752 58.2969 101.518 59.6719C100.283 61.0469 99.6663 62.9297 99.6663 65.3203C99.6663 67.7656 100.248 69.6641 101.412 71.0156C102.576 72.3672 104.24 73.043 106.405 73.043C107.842 73.043 109.162 72.8594 110.365 72.4922V73.5469C109.233 73.9453 107.819 74.1445 106.123 74.1445C103.717 74.1445 101.823 73.3672 100.44 71.8125C99.0569 70.2578 98.3655 68.0859 98.3655 65.2969C98.3655 63.5547 98.6936 62.0195 99.3499 60.6914C100.014 59.3633 100.963 58.3398 102.198 57.6211C103.44 56.8945 104.881 56.5312 106.522 56.5312C108.194 56.5312 109.69 56.8438 111.01 57.4688L110.53 58.5469C109.28 57.9219 107.967 57.6094 106.592 57.6094ZM122.436 67.8633H115.475L113.084 73.9102H111.76L118.651 56.707H119.412L126.162 73.9102H124.815L122.436 67.8633ZM115.908 66.7852H122.037L119.705 60.6094C119.51 60.125 119.276 59.4531 119.002 58.5938C118.791 59.3438 118.561 60.0234 118.311 60.6328L115.908 66.7852ZM141.608 65.1797C141.608 68.0547 140.854 70.2305 139.346 71.707C137.838 73.1758 135.623 73.9102 132.701 73.9102H128.6V56.7773H133.229C135.963 56.7773 138.041 57.4922 139.463 58.9219C140.893 60.3516 141.608 62.4375 141.608 65.1797ZM140.307 65.2266C140.307 62.7734 139.682 60.9297 138.432 59.6953C137.19 58.4531 135.362 57.832 132.948 57.832H129.795V72.8555H132.631C137.748 72.8555 140.307 70.3125 140.307 65.2266ZM154.908 73.9102H145.545V56.7773H154.908V57.8789H146.74V64.3594H154.451V65.4609H146.74V72.8086H154.908V73.9102ZM166.323 73.9102L159.936 58.0898H159.842C159.905 59.0586 159.936 60.0508 159.936 61.0664V73.9102H158.787V56.7773H160.639L166.709 71.8477H166.78L172.85 56.7773H174.655V73.9102H173.448V60.9258C173.448 60.0195 173.494 59.082 173.588 58.1133H173.494L167.084 73.9102H166.323ZM179.506 73.9102V56.7773H180.701V73.9102H179.506ZM194.916 73.9102H185.553V56.7773H194.916V57.8789H186.748V64.3594H194.459V65.4609H186.748V72.8086H194.916V73.9102Z" fill="white"/>
<path d="M44.539 10.93C45.311 10.2047 46.3769 9.89386 47.4429 10.032C48.8764 10.2392 50.0159 11.3099 50.2365 12.6568C50.4202 13.6584 50.0527 14.66 49.2808 15.3852C48.6559 15.9724 47.8105 16.3177 46.8915 16.3177C46.7077 16.3177 46.524 16.3177 46.3402 16.2832C44.9066 16.076 43.7671 15.0053 43.5466 13.6584C43.3996 12.6223 43.7671 11.6207 44.539 10.93ZM5.72312 71.0242C5.68636 71.0242 5.68636 71.0242 5.6496 71.0242C5.3923 71.0242 5.17176 70.8515 5.09824 70.6097C5.02473 70.3334 5.20851 70.0917 5.50257 70.0226C24.4694 64.8766 38.5843 30.4433 42.4439 20.0132C42.5541 19.7369 42.6277 19.5297 42.6644 19.4606C43.2158 18.0791 44.7963 17.8719 46.0093 18.2518C47.2959 18.6662 47.9575 19.5987 47.6634 20.5312V20.5658C47.6267 20.6694 42.7379 32.7573 35.2026 44.9488C25.0576 61.3538 15.133 70.1262 5.72312 71.0242ZM59.242 69.1592C59.0583 69.3664 58.7642 69.5045 58.4701 69.5045C58.2496 69.5045 57.9923 69.4355 57.8085 69.2973C51.3759 64.1858 47.1121 57.3821 45.1272 49.1278C45.0904 48.9896 45.0536 48.8169 45.0169 48.6788H38.033C37.4816 48.6788 37.0405 48.2643 37.0405 47.7463C37.0405 47.2282 37.4816 46.8138 38.033 46.8138H44.6493C43.5466 40.7353 44.0244 35.8656 44.2082 34.5187C44.2817 34.0006 44.7596 33.6552 45.3109 33.6898C45.8623 33.7589 46.2666 34.2078 46.1931 34.7259C45.9726 36.28 45.4212 41.9096 47.0753 48.7133C48.9867 56.5532 53.03 63.0116 59.095 67.8813C59.3156 68.054 59.4258 68.2612 59.4258 68.5375C59.4258 68.8138 59.3891 68.9519 59.242 69.1592Z" fill="#4D4D4D"/>
</svg>
